<?xml version="1.0" encoding="utf-8"?>
<!-- Generator: Adobe Illustrator 16.0.4, SVG Export Plug-In . SVG Version: 6.00 Build 0)  -->
<!DOCTYPE svg PUBLIC "-//W3C//DTD SVG 1.1//EN" "http://www.w3.org/Graphics/SVG/1.1/DTD/svg11.dtd">
<svg version="1.1" id="Layer_1" xmlns="http://www.w3.org/2000/svg" xmlns:xlink="http://www.w3.org/1999/xlink" x="0px" y="0px"
	 width="64px" height="64px" viewBox="0 0 64 64" enable-background="new 0 0 64 64" xml:space="preserve">
<path fill-rule="evenodd" clip-rule="evenodd" fill="none" stroke="#24E5FF" stroke-width="0.9705" stroke-miterlimit="10" d="
	M25.376,33.885c0.379,0.379,0.757,0.757,1.136,1.136l0.437-0.476L25.376,33.885z M28.909,17.135c0.01-1.291,0.165-2.553,0.039-3.853
	C28.123,4.974,19.573-0.79,11.586,1.636c-0.874,0.262-0.951,0.583-0.301,1.233c1.776,1.785,3.562,3.581,5.357,5.357
	c1.756,1.756,1.795,4.328,0.058,6.114c-0.776,0.786-1.553,1.572-2.348,2.339c-1.874,1.844-4.474,1.728-6.299-0.194
	c-1.621-1.688-3.309-3.319-4.988-4.959c-0.543-0.534-0.922-0.427-1.106,0.32c-0.243,0.99-0.369,1.989-0.32,2.863
	c0.02,6.211,3.775,11.325,9.559,13.178c1.727,0.554,3.503,0.689,5.308,0.612c1.728-0.058,3.261,0.359,4.601,1.3l10.131-7.064
	C29.695,21.181,28.899,19.337,28.909,17.135z M61.177,52.673c-7.249-7.259-14.508-14.519-21.768-21.768l-9.268,7.744
	c3.988,3.989,7.977,7.978,11.956,11.966c3.562,3.562,7.114,7.134,10.694,10.675c2.562,2.543,6.638,2.301,8.919-0.485
	C63.69,58.39,63.477,54.973,61.177,52.673z M57.091,59.553c-1.465,0.021-2.591-1.027-2.63-2.436
	c-0.039-1.475,1.048-2.63,2.494-2.648c1.446-0.029,2.65,1.105,2.669,2.514C59.644,58.34,58.469,59.534,57.091,59.553z"/>
<path fill-rule="evenodd" clip-rule="evenodd" fill="none" d="M-5.684-21.328c-2.277,0.032-4.029-1.59-4.084-3.782
	c-0.059-2.288,1.623-4.074,3.875-4.114c2.234-0.04,4.105,1.727,4.139,3.906C-1.723-23.215-3.549-21.358-5.684-21.328z"/>
<polygon fill="none" stroke="#24E5FF" stroke-width="0.9705" stroke-miterlimit="10" points="40.099,22.637 46.823,24.704 
	39.409,30.905 30.142,38.649 1.25,62.805 26.512,35.021 26.949,34.545 25.376,33.885 19.039,31.235 21.106,29.799 31.238,22.734 
	62.146,1.18 "/>
</svg>
